<?xml version="1.0" encoding="UTF-8"?>
<svg id="_圖層_2" data-name="圖層 2" xmlns="http://www.w3.org/2000/svg" xmlns:xlink="http://www.w3.org/1999/xlink" viewBox="0 0 747.35 300.78">
  <defs>
    <style>
      .cls-1 {
        fill: #43465b;
      }

      .cls-2 {
        fill: #1e2142;
      }

      .cls-3 {
        fill: url(#_未命名漸層_99-5);
      }

      .cls-4 {
        fill: url(#_未命名漸層_99-3);
      }

      .cls-5 {
        fill: url(#_未命名漸層_99-4);
      }

      .cls-6 {
        fill: #d72717;
      }

      .cls-7 {
        fill: url(#_未命名漸層_99-2);
      }

      .cls-8 {
        fill: url(#_未命名漸層_99);
      }
    </style>
    <linearGradient id="_未命名漸層_99" data-name="未命名漸層 99" x1="493.83" y1="55.26" x2="493.83" y2="-65.65" gradientTransform="translate(-368.02 165.08) rotate(-11.5)" gradientUnits="userSpaceOnUse">
      <stop offset="0" stop-color="#fff"/>
      <stop offset=".06" stop-color="#f9dfdc"/>
      <stop offset=".18" stop-color="#ed9e97"/>
      <stop offset=".29" stop-color="#e36b60"/>
      <stop offset=".38" stop-color="#dc4638"/>
      <stop offset=".45" stop-color="#d82f1f"/>
      <stop offset=".5" stop-color="#d72717"/>
    </linearGradient>
    <linearGradient id="_未命名漸層_99-2" data-name="未命名漸層 99" x1="2465.22" y1="1618.4" x2="2465.22" y2="1531.53" gradientTransform="translate(-1265 2788.97) rotate(-96)" xlink:href="#_未命名漸層_99"/>
    <linearGradient id="_未命名漸層_99-3" data-name="未命名漸層 99" x1="1714.64" y1="3448.93" x2="1714.64" y2="3360.32" gradientTransform="translate(416.57 4052.94) rotate(-158)" xlink:href="#_未命名漸層_99"/>
    <linearGradient id="_未命名漸層_99-4" data-name="未命名漸層 99" x1="-648.75" y1="3426.92" x2="-648.75" y2="3338.31" gradientTransform="translate(2565.13 2738.78) rotate(126)" xlink:href="#_未命名漸層_99"/>
    <linearGradient id="_未命名漸層_99-5" data-name="未命名漸層 99" x1="-1328.85" y1="1550.53" x2="-1328.85" y2="1461.92" gradientTransform="translate(2187.89 521.69) rotate(60)" xlink:href="#_未命名漸層_99"/>
  </defs>
  <g id="content">
    <g>
      <g>
        <g>
          <path class="cls-8" d="M175.9,26.61c2.1,10.34-2.18,18.73-13.05,31.47-9.19,10.77-16.53,30.09-15.58,53.75-6.23,4.42-13.04,7.47-20.36,8.96-7.31,1.49-14.77,1.34-22.22-.29-8.38-22.15-22.68-37.07-35.36-43.39-14.97-7.48-22.2-13.53-24.3-23.87-4.23-20.78,21.64-43.59,57.77-50.94,36.14-7.35,68.86,3.54,73.09,24.31Z"/>
          <path class="cls-6" d="M147.27,111.83c.21,5.54,.89,11.31,2.1,17.28,2.24,11.01-4.86,21.76-15.88,24-11.01,2.24-21.75-4.87-23.99-15.89-1.21-5.96-2.85-11.54-4.81-16.72,7.45,1.62,14.91,1.78,22.22,.29,7.32-1.49,14.12-4.54,20.36-8.96Z"/>
        </g>
        <g>
          <path class="cls-7" d="M22.88,126.57c7.54-.79,13.24,2.85,21.6,11.5,7.07,7.31,20.38,13.89,37.36,14.84,2.73,4.76,4.44,9.84,5,15.17s-.06,10.65-1.74,15.87c-16.42,4.46-28.07,13.67-33.47,22.3-6.38,10.19-11.21,14.94-18.74,15.73-15.15,1.59-29.68-18.48-32.45-44.82-2.77-26.35,7.27-49,22.42-50.6Z"/>
          <path class="cls-6" d="M81.85,152.91c3.97,.23,8.15,.14,12.5-.31,8.03-.84,15.22,4.98,16.07,13.01,.84,8.03-4.98,15.22-13.01,16.06-4.34,.46-8.45,1.24-12.29,2.29,1.67-5.22,2.3-10.54,1.74-15.87s-2.27-10.41-5-15.17Z"/>
        </g>
        <g>
          <path class="cls-4" d="M50.75,250.56c2.9-7.17,8.91-10.56,20.7-13.95,9.97-2.87,22.27-11.7,31.26-26.55,5.6-.18,10.99,.71,16.06,2.76,5.07,2.05,9.56,5.16,13.46,9.16-3.84,16.93-1.13,31.83,4.06,40.82,6.12,10.63,8.09,17.25,5.19,24.42-5.82,14.41-30.85,17.88-55.91,7.76-25.06-10.13-40.65-30.02-34.83-44.42Z"/>
          <path class="cls-6" d="M102.72,210.07c2.11-3.47,4.03-7.27,5.7-11.41,3.08-7.64,11.77-11.33,19.41-8.24,7.64,3.08,11.32,11.78,8.24,19.41-1.67,4.13-2.93,8.2-3.83,12.16-3.9-4.01-8.39-7.11-13.46-9.16-5.08-2.05-10.47-2.94-16.06-2.76Z"/>
        </g>
        <g>
          <path class="cls-5" d="M194.17,274.76c-6.25-4.54-8.09-11.2-8.53-23.46-.37-10.37-5.96-24.44-18.19-36.76,1.18-5.47,3.35-10.49,6.56-14.92,3.21-4.42,7.32-8.03,12.15-10.85,15.49,7.82,30.61,8.8,40.59,5.94,11.79-3.37,18.69-3.68,24.95,.87,12.57,9.13,9.89,34.26-6,56.13-15.89,21.87-38.96,32.18-51.53,23.05Z"/>
          <path class="cls-6" d="M167.44,214.54c-2.86-2.89-6.08-5.67-9.69-8.29-6.66-4.84-8.14-14.16-3.3-20.83,4.84-6.66,14.17-8.13,20.83-3.29,3.6,2.62,7.25,4.82,10.87,6.65-4.83,2.81-8.93,6.42-12.15,10.85-3.22,4.43-5.38,9.45-6.56,14.92Z"/>
        </g>
        <g>
          <path class="cls-3" d="M257.5,158.28c-6.7,3.87-13.52,2.84-24.9-1.75-9.62-3.88-24.76-4.49-40.98,1.67-4.52-3.31-8.22-7.32-10.96-12.06-2.73-4.74-4.36-9.95-4.97-15.51,13.45-10.97,20.49-24.39,21.94-34.67,1.72-12.15,4.24-18.57,10.94-22.44,13.46-7.77,35.32,4.9,48.84,28.31,13.52,23.41,13.56,48.68,.1,56.45Z"/>
          <path class="cls-6" d="M191.62,158.2c-3.8,1.44-7.66,3.25-11.52,5.48-7.13,4.12-16.25,1.68-20.37-5.46-4.12-7.13-1.67-16.25,5.46-20.37,3.86-2.23,7.36-4.66,10.5-7.23,.6,5.56,2.23,10.77,4.97,15.51,2.74,4.74,6.44,8.76,10.96,12.06Z"/>
        </g>
      </g>
      <g>
        <g>
          <polygon class="cls-2" points="369.22 115.03 417.1 177.03 430.51 177.03 430.51 80.85 411.76 80.85 411.76 143.22 363.61 80.85 350.61 80.85 350.61 177.03 369.22 177.03 369.22 115.03"/>
          <path class="cls-2" d="M466.63,164.1c4.52,4.51,9.78,8.03,15.8,10.53,6.02,2.51,12.54,3.76,19.56,3.76,7.84,0,14.73-1.23,20.66-3.69,5.93-2.46,11.13-5.93,15.6-10.4l-12.59-12.59c-2.65,3.01-5.91,5.33-9.78,6.98-3.88,1.64-8.51,2.46-13.89,2.46-4.47,0-8.55-.78-12.24-2.33-3.69-1.55-6.91-3.76-9.64-6.63-2.74-2.87-4.84-6.27-6.29-10.19-1.46-3.92-2.19-8.3-2.19-13.13s.73-9.1,2.19-13.07c1.46-3.97,3.56-7.39,6.29-10.26,2.74-2.87,5.95-5.06,9.64-6.57,3.69-1.5,7.77-2.26,12.24-2.26,5.11,0,9.58,.82,13.41,2.46,3.83,1.64,7.07,3.92,9.71,6.84l12.59-12.59c-4.47-4.38-9.62-7.82-15.46-10.33-5.84-2.51-12.59-3.76-20.25-3.76-7.12,0-13.66,1.28-19.63,3.83-5.98,2.55-11.22,6.07-15.73,10.53-4.52,4.47-7.98,9.71-10.4,15.73-2.42,6.02-3.62,12.5-3.62,19.43s1.21,13.41,3.62,19.43c2.42,6.02,5.88,11.29,10.4,15.8Z"/>
          <polygon class="cls-2" points="645.47 177.03 602.54 126.54 643.97 80.85 620.71 80.85 582.27 124.34 582.27 80.85 563.66 80.85 563.66 177.03 582.27 177.03 582.27 129.46 621.81 177.03 645.47 177.03"/>
          <path class="cls-2" d="M728.6,80.85v59.65c0,4.2-.89,7.84-2.67,10.94-1.78,3.1-4.17,5.5-7.18,7.18-3.01,1.69-6.48,2.53-10.4,2.53s-7.32-.84-10.47-2.53c-3.15-1.69-5.61-4.08-7.39-7.18-1.78-3.1-2.67-6.79-2.67-11.08v-59.51h-18.61v58.96c0,7.39,1.69,14,5.06,19.84,3.37,5.84,8,10.42,13.89,13.75,5.88,3.33,12.61,4.99,20.18,4.99s14.39-1.66,20.18-4.99c5.79-3.33,10.37-7.89,13.75-13.68,3.37-5.79,5.06-12.38,5.06-19.77v-59.1h-18.74Z"/>
        </g>
        <g>
          <path class="cls-1" d="M388.02,232.49c-1.49-1.97-3.43-3.61-5.81-4.91,1.63-1.07,2.99-2.29,4.02-3.7,1.62-2.23,2.43-4.81,2.43-7.74,0-2.5-.61-4.84-1.83-7.02-1.23-2.18-3.09-3.96-5.58-5.35-2.5-1.38-5.64-2.08-9.41-2.08h-21.22v55.85h21.94c3.99,0,7.35-.73,10.09-2.19,2.74-1.46,4.81-3.39,6.22-5.78,1.41-2.39,2.12-5.03,2.12-7.9,0-3.51-.98-6.57-2.95-9.18Zm-28.24-22.82h11.81c2.39,0,4.31,.61,5.75,1.84,1.43,1.22,2.15,3.03,2.15,5.43s-.72,4.2-2.15,5.43c-1.44,1.22-3.35,1.83-5.75,1.83h-11.81v-14.52Zm19.71,37.26c-1.54,1.75-3.72,2.63-6.54,2.63h-13.16v-17.39h13.16c1.86,0,3.46,.4,4.79,1.2,1.33,.8,2.34,1.86,3.03,3.19,.69,1.33,1.04,2.77,1.04,4.31,0,2.29-.77,4.31-2.31,6.06Z"/>
          <path class="cls-1" d="M428.79,219.25v4.29c-1.11-1.28-2.41-2.36-3.95-3.21-2.26-1.25-4.85-1.87-7.78-1.87-3.46,0-6.58,.89-9.37,2.67-2.79,1.78-5,4.18-6.62,7.18-1.62,3-2.43,6.4-2.43,10.17s.81,7.09,2.43,10.09c1.62,3,3.83,5.39,6.62,7.14,2.79,1.75,5.91,2.63,9.37,2.63,2.92,0,5.53-.63,7.82-1.87,1.53-.84,2.82-1.9,3.91-3.15v4.23h8.78v-38.29h-8.78Zm-2.43,27.52c-1.99,2.18-4.62,3.27-7.86,3.27-2.13,0-4-.49-5.62-1.48-1.62-.98-2.9-2.35-3.83-4.11-.93-1.76-1.39-3.78-1.39-6.06s.47-4.31,1.39-6.06c.93-1.75,2.21-3.12,3.83-4.11,1.62-.98,3.5-1.48,5.62-1.48s4.08,.49,5.71,1.48c1.62,.98,2.88,2.35,3.79,4.11,.9,1.75,1.36,3.78,1.36,6.06,0,3.4-1,6.2-2.99,8.38Z"/>
          <path class="cls-1" d="M477.05,200.1v23.44c-1.11-1.28-2.41-2.36-3.95-3.21-2.26-1.25-4.85-1.87-7.78-1.87-3.46,0-6.58,.89-9.37,2.67-2.79,1.78-5,4.18-6.62,7.18-1.62,3-2.43,6.4-2.43,10.17s.81,7.09,2.43,10.09c1.62,3,3.83,5.39,6.62,7.14,2.79,1.75,5.91,2.63,9.37,2.63,2.92,0,5.53-.63,7.82-1.87,1.53-.84,2.82-1.9,3.91-3.15v4.23h8.78v-57.44h-8.78Zm-.8,44.36c-.9,1.75-2.17,3.12-3.79,4.11-1.62,.98-3.52,1.48-5.71,1.48s-4-.49-5.62-1.48c-1.62-.98-2.9-2.35-3.83-4.11-.93-1.76-1.39-3.78-1.39-6.06s.46-4.31,1.39-6.06c.93-1.75,2.21-3.12,3.83-4.11,1.62-.98,3.52-1.48,5.7-1.48s4,.49,5.63,1.48c1.62,.98,2.88,2.35,3.79,4.11s1.36,3.78,1.36,6.06-.45,4.31-1.36,6.06Z"/>
          <path class="cls-1" d="M549.9,220.21c-2.23-1.17-4.73-1.75-7.5-1.75s-5.2,.6-7.46,1.79c-2.12,1.12-3.87,2.68-5.27,4.62-1.26-1.98-2.91-3.54-4.99-4.66-2.18-1.17-4.63-1.75-7.34-1.75s-5.16,.6-7.34,1.79c-1.42,.78-2.63,1.78-3.67,2.96v-3.95h-8.78v38.29h8.78v-22.82c0-1.7,.37-3.15,1.12-4.35,.74-1.2,1.74-2.11,2.99-2.75,1.25-.64,2.67-.96,4.27-.96,2.34,0,4.31,.71,5.9,2.11,1.6,1.41,2.4,3.39,2.4,5.94v22.82h8.78v-22.82c0-1.7,.37-3.15,1.12-4.35,.75-1.2,1.75-2.11,3.03-2.75,1.28-.64,2.68-.96,4.23-.96,2.34,0,4.31,.71,5.9,2.11,1.6,1.41,2.39,3.39,2.39,5.94v22.82h8.78v-24.73c0-2.98-.67-5.53-2-7.66-1.33-2.13-3.11-3.78-5.34-4.95Z"/>
          <rect class="cls-1" x="568.32" y="219.25" width="8.78" height="38.29"/>
          <path class="cls-1" d="M572.71,201.7c-1.49,0-2.73,.51-3.71,1.52-.98,1.01-1.48,2.26-1.48,3.75s.49,2.74,1.48,3.75c.98,1.01,2.22,1.52,3.71,1.52s2.79-.5,3.75-1.52c.96-1.01,1.43-2.26,1.43-3.75s-.48-2.74-1.43-3.75c-.96-1.01-2.21-1.52-3.75-1.52Z"/>
          <path class="cls-1" d="M616.75,220.65c-2.23-1.46-4.79-2.19-7.66-2.19s-5.36,.65-7.62,1.95c-1.48,.86-2.73,1.94-3.79,3.2v-4.36h-8.78v38.29h8.78v-22.1c0-1.7,.37-3.22,1.12-4.55,.74-1.33,1.78-2.37,3.11-3.11,1.33-.74,2.84-1.12,4.55-1.12,2.55,0,4.64,.83,6.26,2.47,1.62,1.65,2.44,3.75,2.44,6.3v22.1h8.78v-24.01c0-2.5-.64-4.91-1.92-7.22-1.27-2.31-3.03-4.2-5.26-5.67Z"/>
          <polygon class="cls-1" points="648.98 203.29 640.2 203.29 640.2 219.25 631.03 219.25 631.03 227.23 640.2 227.23 640.2 257.54 648.98 257.54 648.98 227.23 658.15 227.23 658.15 219.25 648.98 219.25 648.98 203.29"/>
          <path class="cls-1" d="M700.4,228.23c-1.78-3-4.19-5.39-7.22-7.14-3.03-1.75-6.43-2.63-10.21-2.63s-7.1,.89-10.13,2.67c-3.03,1.78-5.44,4.16-7.22,7.14-1.78,2.98-2.67,6.33-2.67,10.05s.89,7.1,2.67,10.13c1.78,3.03,4.19,5.44,7.22,7.22,3.03,1.78,6.41,2.67,10.13,2.67s7.18-.89,10.21-2.67c3.03-1.78,5.44-4.19,7.22-7.22,1.78-3.03,2.67-6.41,2.67-10.13s-.89-7.09-2.67-10.09Zm-7.74,16.07c-.93,1.76-2.23,3.13-3.91,4.11-1.67,.98-3.6,1.48-5.79,1.48s-4.03-.49-5.7-1.48c-1.68-.98-2.98-2.35-3.91-4.11-.93-1.75-1.4-3.75-1.4-5.98s.47-4.2,1.4-5.9c.93-1.7,2.23-3.04,3.91-4.03,1.67-.98,3.58-1.48,5.7-1.48s4.1,.49,5.75,1.48c1.65,.98,2.95,2.33,3.91,4.03,.96,1.7,1.44,3.67,1.44,5.9s-.47,4.23-1.4,5.98Z"/>
          <path class="cls-1" d="M740.17,220.65c-2.23-1.46-4.79-2.19-7.66-2.19s-5.36,.65-7.62,1.95c-1.48,.86-2.73,1.94-3.79,3.2v-4.36h-8.78v38.29h8.78v-22.1c0-1.7,.37-3.22,1.12-4.55,.74-1.33,1.78-2.37,3.11-3.11,1.33-.74,2.84-1.12,4.55-1.12,2.56,0,4.64,.83,6.26,2.47,1.62,1.65,2.44,3.75,2.44,6.3v22.1h8.78v-24.01c0-2.5-.64-4.91-1.92-7.22-1.27-2.31-3.03-4.2-5.26-5.67Z"/>
        </g>
      </g>
    </g>
  </g>
</svg>