<?xml version="1.0" encoding="utf-8"?>
<!-- Generator: Adobe Illustrator 27.0.0, SVG Export Plug-In . SVG Version: 6.00 Build 0)  -->
<svg version="1.1" id="Слой_1" xmlns="http://www.w3.org/2000/svg" xmlns:xlink="http://www.w3.org/1999/xlink" x="0px" y="0px"
	 viewBox="0 0 2000 2000" style="enable-background:new 0 0 2000 2000;" xml:space="preserve">
<style type="text/css">
	.st0{fill:#D7E9F4;}
	.st1{fill:#FFFFFF;}
	.st2{fill:#0E2549;}
	.st3{fill:#A1C5E2;}
	.st4{fill:#E2474B;}
	.st5{fill:#1E5272;}
	.st6{fill:#2E6B99;}
	.st7{fill:#EBF4FE;}
	.st8{fill:#D2EBFC;}
</style>
<path class="st0" d="M112.6,1611.8c0,0,166.9-704,353.5-763.3c186.7-59.2,235.2,66.8,323.8,58.7c88.6-8.1,386-256.5,492.2-355.1
	c180.9-167.8,688.6-265.2,582.7-10.1c-88.7,213.6-404.3,551.5-358,644.3c9,18,201.3-105.1,253.2-89.1
	c232.6,72-78.3,515.2-78.3,515.2L112.6,1611.8z"/>
<path class="st1" d="M1917,630.4h-177.9v-64.1h46.9c0.8,0,1.5-0.7,1.5-1.5s-0.7-1.5-1.5-1.5h-108.9V503H1841c0.8,0,1.5-0.7,1.5-1.5
	s-0.7-1.5-1.5-1.5h-314c-0.8,0-1.5,0.7-1.5,1.5s0.7,1.5,1.5,1.5h33.5v60.3H1472c-0.8,0-1.5,0.7-1.5,1.5s0.7,1.5,1.5,1.5h158.2v64.1
	H1603c-0.8,0-1.5,0.7-1.5,1.5s0.7,1.5,1.5,1.5h314c0.8,0,1.5-0.7,1.5-1.5C1918.5,631.1,1917.8,630.4,1917,630.4z M1563.5,563.3V503
	h110.7v60.3H1563.5z M1736.1,630.4h-103v-64.1h103V630.4z"/>
<path class="st1" d="M436.5,1404.3H348V1344h33.5c0.8,0,1.5-0.7,1.5-1.5s-0.7-1.5-1.5-1.5H175c-0.8,0-1.5,0.7-1.5,1.5
	s0.7,1.5,1.5,1.5h56.4v60.3H122.5c-0.8,0-1.5,0.7-1.5,1.5s0.7,1.5,1.5,1.5h46.9v64.1H120c-0.8,0-1.5,0.7-1.5,1.5s0.7,1.5,1.5,1.5
	h185.5c0.8,0,1.5-0.7,1.5-1.5s-0.7-1.5-1.5-1.5h-27.2v-64.1h158.2c0.8,0,1.5-0.7,1.5-1.5S437.3,1404.3,436.5,1404.3z M275.3,1471.4
	h-103v-64.1h103V1471.4z M234.3,1404.3V1344H345v60.3H234.3z"/>
<g>
	<polygon class="st1" points="1144.7,1542.3 1144.6,1573.7 1101.1,1573.7 1097.5,1543.9 	"/>
	<path class="st2" d="M1146.2,1575.3h-46.6l-4-33l50.7-1.7L1146.2,1575.3z M1102.5,1572.1h40.5l0.1-28.1l-43.7,1.5L1102.5,1572.1z"
		/>
	<path class="st3" d="M1147,1571.8c0,0,62.9,20,65.1,36.4h-112.8v-36.4H1147z"/>
	<polygon class="st1" points="969.2,1543 968.1,1574.8 924.5,1574.8 922.5,1542.3 	"/>
	<path class="st2" d="M969.6,1576.4H923l-2.3-35.7l50.2,0.7L969.6,1576.4z M926.1,1573.1h40.4l1.1-28.5l-43.3-0.6L926.1,1573.1z"/>
	<path class="st3" d="M970.4,1572.9c0,0,62.9,20,65.1,36.4H922.7v-36.4H970.4z"/>
	<polygon class="st2" points="1039.6,1603 1039.6,1612.5 919.8,1612.5 919.8,1601.7 	"/>
	<polygon class="st2" points="1095.8,1601.3 1095.8,1611.4 1215.6,1611.4 1215.6,1600.6 	"/>
	<polygon class="st2" points="983.7,1548.8 914.4,1548.8 908.5,993.6 1108.2,1028.1 1155.7,1548.8 1089,1548.8 1019.2,1202.8 
		1027.2,1127 	"/>
	<path class="st3" d="M936.6,1538.2C936.6,1538.2,936.5,1538.2,936.6,1538.2c-0.9,0-1.6-0.8-1.6-1.7l10.2-459.8
		c0-0.9,0.8-1.6,1.7-1.6c0.9,0,1.6,0.8,1.6,1.7l-10.2,459.8C938.2,1537.5,937.5,1538.2,936.6,1538.2z"/>
	<path class="st3" d="M1104.7,1536.3l-71-403.5c-0.1-0.5-0.4-0.9-0.8-1.1l3.9-22.8l0-0.1v-45.5c0-0.9-0.7-1.6-1.6-1.6
		s-1.6,0.7-1.6,1.6v45.2l-16,94.2c-0.2,0.9,0.4,1.7,1.3,1.9c0.1,0,0.2,0,0.3,0c0.8,0,1.5-0.6,1.6-1.4l10.8-63.6l69.9,397.3
		c0.1,0.8,0.8,1.3,1.6,1.3c0.1,0,0.2,0,0.3,0C1104.3,1538,1104.9,1537.1,1104.7,1536.3z"/>
	<path class="st1" d="M1057.9,1063.2c0,0-0.7,46-8.7,47.5h-76.5c-2.5-2.4-6.5-16.1,17.5-16.6s31.1,0,31.1,0l-1.1-30.8H1057.9z"/>
	<path class="st2" d="M1049.3,1112h-77.2l-0.4-0.4c-1.7-1.7-3.3-6.1-1.7-10.2c1.5-3.9,6.2-8.5,20.1-8.8c18.1-0.4,26.5-0.2,29.7-0.1
		l-1.1-30.8h40.5l0,1.4c-0.2,11-1.3,47.2-9.8,48.8L1049.3,1112z M973.3,1109.2h75.7c4.1-1.1,7-23.7,7.4-44.7h-34.8l1.1,30.9
		l-1.5-0.1c-0.1,0-7.4-0.5-31,0c-12.3,0.3-16.4,4-17.6,7.1C971.6,1105.2,972.6,1108.1,973.3,1109.2z"/>
	<path class="st1" d="M1150.6,695.5c0,0-18.5,49.7-15.9,56.5c2.6,6.7,3,32.7,3,32.7l-50.1,96.3l-82.2-30.6l17.6-87.8
		c0,0,46.9-21.1,50.9-26.9c5.6-8.1,18.3-55.7,18.3-55.7L1150.6,695.5z"/>
	<path class="st2" d="M1088.3,883l-84.7-31.6l18-89.9l0.7-0.3c18.7-8.4,47.5-22.4,50.3-26.4c5.4-7.7,17.9-54.7,18.1-55.2
		c0.2-0.8,1.1-1.3,1.9-1.1c0.8,0.2,1.3,1.1,1.1,1.9c-0.5,2-12.8,48-18.5,56.2c-4,5.8-43.5,23.8-50.8,27.1l-17.1,85.8l79.7,29.7
		l49.3-94.8c-0.1-3.2-0.6-25.8-2.9-31.8c-2.7-6.9,12.8-49.2,15.9-57.6c0.3-0.8,1.2-1.2,2-0.9c0.8,0.3,1.2,1.2,0.9,2
		c-7.1,19-17.6,50.9-15.9,55.4c2.6,6.9,3.1,32.2,3.1,33.2l0,0.4l-0.2,0.3L1088.3,883z"/>
	<path class="st2" d="M1170.5,590.2c10,4.6,34.4,15.4,28.2,33.9c-7.1,21.2-19.8,47.2-26.7,60.8c-2.7,5.4-9,7.9-14.7,6l-63.9-21.4
		c-5.9-2-9.3-8-8-14.1c4.3-20.4,13.8-63.4,18.3-68.8C1118.8,568,1154.6,583,1170.5,590.2z"/>
	<path class="st1" d="M1093.8,685.1c-2.2-4.7,1.1-19.4,6.1-35.7c0.1-0.5,0-1-0.3-1.3c-3.4-3.9-7.6-11.3-4.8-19.2
		c2.5-6.9,7-3.8,10.2-0.2c0.6,0.6,1.6,0.4,1.9-0.4c6.8-19.4,13.6-36.1,13.6-36.1l75.9,25.4c0,0-6,17.3-13.2,36.6
		c-0.3,0.9-19.1,46.3-22.3,49.9c-1.8,2-4.3,3.2-7.4,3.9c0,0-6.2,2.4-33.8-6.9L1093.8,685.1z"/>
	<path class="st2" d="M1150.9,709.7c-4.2,0-13.4-1.1-31.6-7.2c-0.8-0.3-1.2-1.1-1-2c0.3-0.8,1.2-1.2,2-1c26.1,8.7,32.7,6.9,32.8,6.9
		l0.2,0c2.9-0.7,5.1-1.8,6.6-3.4c2.9-3.2,21.3-47.6,22-49.4c6-15.8,11.1-30.5,12.7-35.1l-73-24.4c-1.7,4.4-7.4,18.7-13.1,34.7
		c-0.3,0.9-1.1,1.6-2,1.8c-0.9,0.2-1.8-0.1-2.5-0.8c-2.1-2.4-4.1-3.6-5.3-3.4c-1.1,0.2-1.9,1.8-2.3,3c-2.9,8,2.2,15,4.5,17.7
		c0.7,0.8,0.9,1.8,0.6,2.8c-7.7,25.2-7.2,32.5-6.2,34.6c0.4,0.8,0,1.7-0.7,2.1c-0.8,0.4-1.7,0-2.1-0.7c-2.2-4.5-0.2-16.6,6-36.7
		c-2.7-3.1-8.4-11.3-5-20.7c1.1-2.9,2.6-4.6,4.7-5c2.3-0.5,4.9,0.8,7.7,3.8c6.7-18.9,13.4-35.4,13.4-35.6l0.5-1.3l78.8,26.4
		l-0.5,1.5c-0.1,0.2-6.1,17.6-13.2,36.6c-0.2,0.4-19,46.4-22.6,50.4c-1.9,2.1-4.6,3.6-8.1,4.4
		C1153.6,709.5,1152.7,709.7,1150.9,709.7z"/>
	<path class="st2" d="M1140.4,647.7c-0.3,0-0.6-0.1-1-0.2c-1.4-0.5-2-2.1-1.5-3.4l0.6-1.5c0.5-1.4,2.1-2,3.4-1.5
		c1.4,0.5,2,2.1,1.5,3.4l-0.6,1.5C1142.4,647.1,1141.4,647.7,1140.4,647.7z"/>
	<path class="st2" d="M1171.9,659.6c-0.3,0-0.6,0-0.9-0.1c-1.4-0.5-2.1-2-1.6-3.3l0.6-1.8c0.5-1.4,2-2.1,3.3-1.6
		c1.4,0.5,2.1,2,1.6,3.3l-0.6,1.8C1174,659,1173,659.6,1171.9,659.6z"/>
	<path class="st2" d="M1128.9,631.9c-0.5,0-1.1-0.2-1.5-0.6c-0.8-0.8-0.8-2.1,0-3c8-8.1,21.4-3.8,21.9-3.6c1.1,0.4,1.7,1.6,1.3,2.7
		c-0.4,1.1-1.6,1.7-2.7,1.3l0,0c-0.1,0-11.5-3.7-17.6,2.5C1130,631.7,1129.5,631.9,1128.9,631.9z"/>
	<path class="st2" d="M1154.5,670.2c-1,0-1.8-0.1-2.3-0.1c-1-0.1-1.7-1-1.6-2c0.1-1,1-1.7,2-1.6c2.7,0.3,5.5-0.2,5.8-0.7
		c0.5-1,1.2-7.3,1.7-12.4c1.1-9.7,1.8-15.7,2.9-17.6c0.6-1,1.5-1.6,2.7-1.8c5.3-0.8,14.7,7.5,16.5,9.2c0.7,0.7,0.8,1.8,0.1,2.5
		c-0.7,0.7-1.8,0.8-2.5,0.1c-7.9-7.1-13.1-8.8-13.8-8.2c-0.8,1.4-1.8,10.3-2.5,16.2c-1,8.8-1.5,12.5-2.2,13.7
		C1160.3,669.7,1156.9,670.2,1154.5,670.2z"/>
	<path class="st2" d="M1177.4,620.3c10,2.7,29.7,5.1,34.2-14.9c4.5-20-1.6-14.2-1.6-14.2s-5.4,3-7,2.7c-1.6-0.3,1.2,1.8,1.3-15.9
		c0,0-13.6-7.5-22.9-0.4c-9.3,7.1-12.1,0.5-12.9-4.9c-0.7-4.6-8.5-1.5-11,2.1c-3.7,3.7-25.3-5.9-33-4.8
		c-12.2,1.8-16.5,2.9-20.8,16.8c-0.8,2.7-5.2,29.9-5.2,29.9l17.4-24.4C1115.9,592.2,1161.1,615.8,1177.4,620.3z"/>
	<path class="st2" d="M1157,681c0.5,1.3-1.5,5.3-5.2,3.7c-9.4-4.1-15.6-14.1-13.5-12.8c0.8,0.5,6.4,4.2,10.3,6.2
		C1153.9,680.8,1156.4,679.5,1157,681z"/>
	<path class="st4" d="M1076.1,737.5c0,0,63.2,22.3,65.7,22.5c2.5,0.2-39.4,286.4-39.4,286.4l-132.9-42.7L1076.1,737.5z"/>
	<path class="st1" d="M988,840.8v234.5V840.8z"/>
	<path class="st2" d="M988,1076.9c-0.9,0-1.6-0.7-1.6-1.6V840.8c0-0.9,0.7-1.6,1.6-1.6c0.9,0,1.6,0.7,1.6,1.6v234.5
		C989.6,1076.2,988.9,1076.9,988,1076.9z"/>
	<path class="st1" d="M1170,891c4.8,8.5,108.2-67.4,109.7-73.2c3.5-13.2-5-25.5-4-29.4c1.5-6.1,14.2,13.2,17,18.8
		c0.5,1,1.2,1,2.1,0.5c11.2-6.2,40.7-24.1,42.2-17.9c1.4,5.7-28.1,19.8-27.8,21.2c0.6,3.7,3.3,17.2-11.5,23.2
		c-9.6,3.9-35.5,96-85.5,86.3C1162.2,910.7,1165.2,882.5,1170,891z"/>
	<path class="st2" d="M1219.6,922.8c-2.5,0-5.1-0.2-7.7-0.8c-37-7.2-45.8-24.6-46-30.7c-0.1-2.7,1.3-3.4,1.8-3.5
		c0.7-0.2,2.2-0.2,3.6,2.2c2.5,0.6,16.7-5.6,55.2-32.6c27.3-19.2,50.1-37.2,51.6-40.1c2.1-8.1-0.5-15.9-2.5-21.6
		c-1.2-3.4-2-5.9-1.6-7.7c0.5-2,1.9-2.4,2.4-2.4c0.1,0,0.2,0,0.2,0c5.5,0,16.1,18.6,17.2,20.7c0,0,0,0,0,0c1.4-0.8,3-1.7,4.9-2.8
		c21-12,33.3-18.2,37.8-16.2c1,0.4,1.6,1.2,1.9,2.2c1.1,4.2-6.4,9.5-21.4,18.3c-2.4,1.4-5.2,3-6.2,3.8c1.9,11.9-2.4,20-12.6,24.2
		c-2,0.8-6.5,9.6-10.7,18.1C1274.3,880,1252.8,922.8,1219.6,922.8z M1169.4,892.7c0.2,0.9,0.6,2,1.4,3.4c2.7,4.9,12.1,17,41.8,22.8
		c35.2,6.9,58.3-39.1,72.1-66.6c6.2-12.4,9.4-18.4,12.4-19.7c13.2-5.3,11.2-17.2,10.6-21.1l-0.1-0.3c-0.3-1.6,0.7-2.1,7.9-6.4
		c4.3-2.5,9.6-5.6,13.7-8.6c6.4-4.6,6.2-6.1,6.2-6.1c-0.1-0.1-2.1-1-13.6,4.5c-7.1,3.4-15.3,8.1-21.3,11.6c-1.9,1.1-3.5,2-4.9,2.8
		c-0.9,0.5-1.8,0.7-2.6,0.4c-0.5-0.2-1.3-0.6-1.8-1.6c-2.8-5.7-11.1-17.5-14-18.9c-0.1,1,0.7,3.4,1.5,5.7c2,5.8,4.9,14.5,2.5,23.6
		c-1.2,4.4-35.7,29.7-48.9,39.1c-14.6,10.4-49.7,34.6-59.9,35.9C1170.9,893.4,1170,893.1,1169.4,892.7z M1278.1,817.4
		C1278.1,817.4,1278.1,817.4,1278.1,817.4C1278.1,817.4,1278.1,817.4,1278.1,817.4z M1277.3,788.5L1277.3,788.5L1277.3,788.5z"/>
	<path class="st3" d="M865.4,1019.3c0,0,84.5-260.7,120-284.4c35.4-23.7,46.7-19.8,75.7-19.6c29,0.2,29.4,75.6,20.2,101.3
		c-11.7,32.6-72.9,234.9-72.9,234.9L865.4,1019.3z"/>
	<path class="st3" d="M1074.3,1066.3c0,0,30.1-205.8,42.3-247.5c7.7-26.2,14.9-81.5,30.1-76.7c32.7,10.4,51.5,127.1,51.5,127.1
		l65.5-53.7l39.3,56.1c0,0-64.3,107-113,106.5c-21.5-0.2-47.1-58.6-47.1-58.6l-19,157.9L1074.3,1066.3z"/>
	<polygon class="st3" points="993.7,833.1 988,1083.2 1061.1,1084.2 1065.1,815.8 	"/>
	<path class="st2" d="M1062.8,1086l-76.6-1.1l5.8-251.8c0-1,0.8-1.8,1.8-1.7c1,0,1.7,0.8,1.7,1.8l-5.7,248.3l69.6,1l4-266.7
		c0-1,0.8-1.7,1.7-1.7c0,0,0,0,0,0c1,0,1.7,0.8,1.7,1.8L1062.8,1086z"/>
	<path class="st2" d="M1142.4,911.4c-0.1,0-0.1,0-0.2,0c-1-0.1-1.6-1-1.5-2l9.9-77.1c0.1-1,1-1.6,2-1.5c1,0.1,1.6,1,1.5,2l-9.9,77.1
		C1144.1,910.8,1143.3,911.4,1142.4,911.4z"/>
</g>
<g>
	<path class="st3" d="M587,1351.6H408.4c-24,0-43.4-19.4-43.4-43.4V941.1c0-24,19.4-43.4,43.4-43.4h141.7c24,0,43.4,19.4,43.4,43.4
		v332.2l36.9,34.9C630.4,1332.2,611,1351.6,587,1351.6z"/>
	<path class="st2" d="M587,1353.4H408.4c-24.9,0-45.2-20.3-45.2-45.2V941.1c0-24.9,20.3-45.2,45.2-45.2h141.7
		c24.9,0,45.2,20.3,45.2,45.2v331.5l36.9,34.9v0.8C632.1,1333.1,611.9,1353.4,587,1353.4z M408.4,899.4c-23,0-41.7,18.7-41.7,41.7
		v367.1c0,23,18.7,41.7,41.7,41.7H587c22.7,0,41.3-18.3,41.7-40.9l-36.9-34.9v-333c0-23-18.7-41.7-41.7-41.7H408.4z"/>
	<path class="st2" d="M489,1286.5C489,1286.5,489,1286.5,489,1286.5l-74.5,1.3c9.9-120.8-19.6-300.8-19.9-302.6
		c-0.2-1-1.1-1.6-2-1.4c-1,0.2-1.6,1.1-1.4,2c0.3,1.8,29.8,181.7,19.9,302l-15.9,0.3c-1,0-1.7,0.8-1.7,1.8c0,1,0.8,1.7,1.7,1.7
		c0,0,0,0,0,0l93.9-1.6c1,0,1.7-0.8,1.7-1.8C490.7,1287.2,489.9,1286.5,489,1286.5z"/>
	<path class="st2" d="M533.8,1576.9h-16.6v-204.8c10.5-2.1,18.4-10.5,18.4-20.5h-47.4c0,10,7.9,18.3,18.4,20.5v204.8h-16.6
		c-16.4,0-29.8,13.3-29.8,29.8v5.8h103.2v-5.8C563.6,1590.2,550.3,1576.9,533.8,1576.9z"/>
</g>
<g>
	<polygon class="st1" points="854.4,1493.6 883.2,1565.6 833.2,1565.6 808.6,1519.7 	"/>
	<path class="st2" d="M886,1567.5h-53.9l-26.1-48.6l49.4-28.1L886,1567.5z M834.4,1563.7h45.9l-26.9-67.3l-42.3,24L834.4,1563.7z"/>
	<path class="st4" d="M885.9,1563.3c0,0,72.2,24.4,74.7,44.6H831.2v-44.6H885.9z"/>
	<polygon class="st1" points="691.8,1526.4 686,1566.2 638.7,1566.2 643.7,1522.9 	"/>
	<path class="st2" d="M687.6,1568.1h-51.1l5.5-47.3l52,3.8L687.6,1568.1z M640.9,1564.2h43.4l5.3-36.1l-44.2-3.2L640.9,1564.2z"/>
	<path class="st4" d="M688.7,1563.9c0,0,72.2,24.4,74.7,44.6H634v-44.6H688.7z"/>
	<polygon class="st2" points="768.1,1600.8 768.1,1612.4 630.6,1612.4 630.6,1599.1 	"/>
	<polygon class="st2" points="827.1,1599.4 827.1,1611.8 964.6,1611.8 964.6,1598.5 	"/>
	<path class="st2" d="M693.6,1580.2c-0.8,0-1.4-0.5-1.7-1.2c-0.3-0.9,0.2-1.9,1.1-2.2l25-8c0.9-0.3,1.9,0.2,2.2,1.1
		c0.3,0.9-0.2,1.9-1.1,2.2l-25,8C693.9,1580.1,693.8,1580.2,693.6,1580.2z"/>
	<path class="st2" d="M706,1588.1c-0.8,0-1.4-0.5-1.7-1.2c-0.3-0.9,0.2-1.9,1.1-2.2l25-8c0.9-0.3,1.9,0.2,2.2,1.1
		c0.3,0.9-0.2,1.9-1.1,2.2l-25,8C706.4,1588.1,706.2,1588.1,706,1588.1z"/>
	<path class="st2" d="M723.3,1596.1c-0.8,0-1.4-0.5-1.7-1.2c-0.3-0.9,0.2-1.9,1.1-2.2l25-8c0.9-0.3,1.9,0.2,2.2,1.1
		c0.3,0.9-0.2,1.9-1.1,2.2l-25,8C723.7,1596.1,723.5,1596.1,723.3,1596.1z"/>
	<path class="st2" d="M887.2,1576.9c-0.8,0-1.4-0.5-1.7-1.2c-0.3-0.9,0.2-1.9,1.1-2.2l25-8c0.9-0.3,1.9,0.2,2.2,1.1
		c0.3,0.9-0.2,1.9-1.1,2.2l-25,8C887.6,1576.8,887.4,1576.9,887.2,1576.9z"/>
	<path class="st2" d="M899.7,1584.8c-0.8,0-1.4-0.5-1.7-1.2c-0.3-0.9,0.2-1.9,1.1-2.2l25-8c0.9-0.3,1.9,0.2,2.2,1.1
		c0.3,0.9-0.2,1.9-1.1,2.2l-25,8C900.1,1584.8,899.9,1584.8,899.7,1584.8z"/>
	<path class="st2" d="M917,1592.8c-0.8,0-1.4-0.5-1.7-1.2c-0.3-0.9,0.2-1.9,1.1-2.2l25-8c0.9-0.3,1.9,0.2,2.2,1.1
		c0.3,0.9-0.2,1.9-1.1,2.2l-25,8C917.4,1592.8,917.2,1592.8,917,1592.8z"/>
	<path class="st5" d="M638.8,1194.3c0,0,158.6-7,162.6,31.7s-93.2,313.1-93.2,313.1l-76.2-10.8c0,0,54.9-201.1,52.5-215.6
		c-9.4-57.1-228.7-126.4-228.7-126.4L638.8,1194.3z"/>
	<path class="st6" d="M427.1,1164.1c0,0-19.1,125.2,72.1,132.9c92.1,7.8,180.4,6.4,200.4,26.1c5.9,5.8,109.2,216.1,109.2,216.1
		l72.2-28.5c0,0-120.7-260.3-130-272.9c-16.7-22.5-29.3-34.7-112.2-43.5C564,1186.4,427.1,1164.1,427.1,1164.1z"/>
	<path class="st1" d="M644.7,828.6c0,0-16.6,48.9-13.6,55.2c3,6.4,25.4,21.5,25.4,21.5l-67.5,105.2l-86.6-25.7l13.7-85.6
		c0,0,47.4-22.6,51.3-28.4c5.4-8,16.1-54.6,16.1-54.6L644.7,828.6z"/>
	<path class="st2" d="M589.6,1012.4l-1.1-0.3L500.7,986l14-87.7l0.7-0.3c18.2-8.7,48-23.9,50.7-27.9c5.2-7.7,15.8-53.6,15.9-54.1
		c0.2-0.8,1-1.3,1.8-1.2c0.8,0.2,1.3,1,1.2,1.8c-0.4,1.9-10.9,46.9-16.3,55.1c-3.8,5.8-43.8,25-51.2,28.6l-13.4,83.4l84.1,25
		l66.1-103c-5.1-3.5-21.9-15.4-24.6-21.3c-3.1-6.6,10.7-48.1,13.5-56.4c0.3-0.8,1.1-1.2,2-1c0.8,0.3,1.2,1.1,1,2
		c-6.3,18.7-15.6,49.8-13.6,54.1c2.3,4.9,18.7,16.7,24.8,20.9l1.2,0.8L589.6,1012.4z"/>
	<path class="st2" d="M651.4,726.8c10.8,3.4,37,11.5,32.6,29.9c-5.1,21-15.5,47.2-21.2,61c-2.3,5.4-8.4,8.5-14.5,7.2l-68-14.4
		c-6.2-1.3-10.4-6.8-9.7-12.7c2.4-20,7.8-62.2,11.7-67.9C595.9,710.4,634.4,721.3,651.4,726.8z"/>
	<path class="st1" d="M582.1,825.3c-2.8-4.3-0.8-18.7,2.7-34.9c0.1-0.5-0.1-0.9-0.4-1.3c-3.9-3.4-9-10.1-6.9-18
		c1.8-6.9,6.8-4.3,10.5-1.2c0.7,0.6,1.7,0.2,1.9-0.6c5.1-19.3,10.3-36,10.3-36l80.8,17.1c0,0-4.4,17.2-9.9,36.4
		c-0.2,0.9-14.9,46.3-17.9,50.1c-1.6,2.1-4.1,3.5-7.2,4.5c0,0-6.1,2.9-35.5-3.4L582.1,825.3z"/>
	<path class="st2" d="M640,843.7c-5.3,0-14.4-0.8-29.7-4.1c-0.8-0.2-1.4-1-1.2-1.8c0.2-0.8,1-1.4,1.8-1.2
		c27.9,5.9,34.5,3.5,34.6,3.5l0.2-0.1c2.9-0.9,5.1-2.2,6.4-4c2.6-3.3,17.1-47.8,17.6-49.6c4.5-15.7,8.3-30.2,9.5-34.8l-77.8-16.5
		c-1.3,4.3-5.7,18.7-9.9,34.6c-0.2,0.9-0.9,1.6-1.8,1.9c-0.9,0.3-1.9,0.1-2.6-0.5c-2.5-2.1-4.7-3.1-5.9-2.7
		c-1.1,0.3-1.7,1.9-2.1,3.1c-2.1,7.8,3.8,14.1,6.4,16.5c0.8,0.7,1.1,1.7,0.9,2.7c-5.4,24.9-4.1,31.8-2.9,33.7
		c0.5,0.7,0.3,1.7-0.5,2.1c-0.7,0.5-1.7,0.3-2.1-0.5c-1-1.5-4-6.2,2.4-35.9c-3.1-2.8-9.8-10.1-7.3-19.5c0.8-2.9,2.2-4.7,4.1-5.3
		c2.3-0.7,5.1,0.3,8.4,2.9c5-18.9,10.2-35.4,10.2-35.5l0.4-1.3l83.8,17.8l-0.4,1.6c0,0.2-4.4,17.5-9.9,36.5
		c-0.1,0.4-14.8,46.5-18.1,50.6c-1.7,2.2-4.4,3.9-7.9,5C646.1,843.1,644.3,843.7,640,843.7z"/>
	<path class="st2" d="M617.6,784.9c-0.2,0-0.5,0-0.8-0.1c-1.4-0.4-2.2-1.9-1.8-3.3l0.5-1.5c0.4-1.4,1.9-2.2,3.3-1.8
		c1.4,0.4,2.2,1.9,1.8,3.3l-0.5,1.5C619.8,784.2,618.8,784.9,617.6,784.9z"/>
	<path class="st2" d="M654.8,792.9c-0.2,0-0.4,0-0.7-0.1c-1.4-0.4-2.3-1.8-1.9-3.2l0.5-1.8c0.4-1.4,1.8-2.3,3.2-1.9
		c1.4,0.4,2.3,1.8,1.9,3.2l-0.5,1.8C657.1,792.1,656,792.9,654.8,792.9z"/>
	<path class="st2" d="M626.6,774c-0.4,0-0.8-0.1-1.2-0.4c-0.1-0.1-5.5-3.8-12.4-2.8c-1.2,0.2-2.2-0.6-2.4-1.8
		c-0.2-1.1,0.6-2.2,1.8-2.4c8.6-1.3,15.2,3.3,15.5,3.5c0.9,0.7,1.2,2,0.5,2.9C627.9,773.7,627.3,774,626.6,774z"/>
	<path class="st2" d="M619.8,810.2c-1.7,1.5,3.3,8.9,11,10.2c12.5,2.1,18.2-5,15.1-5c-1.2,0-6.3,1.4-13.7,0
		C624.1,813.8,620.9,809.2,619.8,810.2z"/>
	<path class="st2" d="M635.1,807.3c-0.1,0-0.2,0-0.2,0c-1,0-1.8-0.8-1.8-1.8c0-1,0.8-1.8,1.8-1.8c0.1,0,0.1,0,0.2,0
		c2.9,0,5.5-0.7,5.8-1.3c0.6-1.4,0.7-1.4-0.7-9.7c-0.3-1.9-0.7-4.1-1.1-6.8l0-0.1c0-0.6-0.4-6.2,1.3-9.7c0.6-1.2,2-2.1,4.1-2.5
		c5.4-1.1,14.8,0.6,19.4,4.8c0.7,0.7,0.8,1.8,0.1,2.5s-1.8,0.8-2.5,0.1c-3.4-3.1-10.5-4.5-15.1-4.2c-2,0.2-2.8,0.7-3,0.8
		c-1,2.1-1,6.3-0.9,7.8c0.4,2.7,0.8,4.9,1.1,6.7c1.4,8.6,1.5,9.3,0.4,11.8C642.7,807,637.2,807.3,635.1,807.3z"/>
	<path class="st2" d="M591.6,730.3c0,0-0.7-20.4,13-17.9c13.7,2.4,16-11.1,28.8-8.7c12.8,2.4,5.6,5.8,18.7,9.8
		c13.1,4,20.1-3.1,23.2,7.5c3.1,10.6,13.6,8.6,17.9,15.9c4.2,7.3,2.3,15.4-4.4,17.7c-6.7,2.3,3,8.5-2.6,14
		c-5.6,5.5-27.7,3.6-30.9-5.2s-4.9-14.8-13.1-15.7c-8.2-0.9-18.4,2.7-23.9,0.8s-12.7-8.3-15.8-7c-3.1,1.4-6.6,6.3-9.6,5.7
		C590,746.6,581.2,736.3,591.6,730.3z"/>
	<path class="st2" d="M604.5,733.2c0,0-3.7,9.8-7.6,14c-4,4.2-9.4,6.9-9.3,14c0.1,7.1-16.8-3.8-12.1-11.1c9.7-15-4.9-19.5,4.7-27
		c5.7-4.5,15.8-3.7,15.8-3.7L604.5,733.2z"/>
	<path class="st2" d="M604.5,733.2c0,0-3.7,9.8-7.6,14c-4,4.2-9.4,6.9-9.3,14c0.1,7.1-16.8-3.8-12.1-11.1c9.7-15-4.9-19.5,4.7-27
		c5.7-4.5,15.8-3.7,15.8-3.7L604.5,733.2z"/>
	<path class="st4" d="M542.2,869.6c-17.6-9.1-128.6,67.6-159.9,168.7c-35.2,113.5,93.8,81.6,93.8,81.6l-19.9-126.6L424,1175.1
		l206.8,19.2l21.7-135.1c0,0-9.6,59.8,67.2,61.1c33.8,0.6,81.7,0,81.7,0l5.5-51.7l-86.2-12.3c0,0-7.8-97.4-42-132.8
		c-16.1-16.7-29.4-26.5-36.3-28.2C621.5,890.2,631.5,915.7,542.2,869.6z"/>
	<path class="st1" d="M665.3,1099.3l41-4.3l13.3,3.5l1.9,4.9c0,0-21.9-1.3-34.8,2.6c-12.9,3.9-22.8,2.7-22.8,2.7l-0.7-3
		L665.3,1099.3z"/>
	<path class="st1" d="M658.5,1112.6c-18.2-1.6-96.1,9-96.1,9l6.6-42.1c0,0,85,14.5,91.5,12.6c12.1-3.5,28.1-5.6,42.4-6.1
		c18.9-0.7,36.5,3.8,36.2,8.9c-0.2,2.8-25.6,0.6-32.1,3.2C688.5,1105.5,671.5,1113.8,658.5,1112.6z"/>
	<path class="st2" d="M559.9,1124.1l7.3-47l2.1,0.4c32.5,5.5,85.9,13.9,90.5,12.7c11.5-3.3,27.5-5.6,42.8-6.2
		c16.3-0.6,32.1,2.5,36.8,7.3c1.5,1.5,1.7,2.9,1.7,3.9c-0.2,3.4-4.9,3.5-16.3,3.7c-6.4,0.1-14.3,0.2-17.1,1.4
		c-2.9,1.2-5.9,2.4-8.7,3.6c-15,6.2-29.2,12.1-40.6,11.1l0,0c-17.7-1.5-94.9,8.9-95.7,9L559.9,1124.1z M570.7,1082l-5.8,37.2
		c14.3-1.9,77.3-10,93.8-8.6l0,0c10.4,0.9,24.1-4.8,38.6-10.8c2.9-1.2,5.8-2.4,8.8-3.6c3.5-1.4,11.2-1.5,18.6-1.7
		c3.9-0.1,9-0.2,11.5-0.5c-3.7-3.3-17.7-6.4-33.4-5.8c-15.1,0.6-30.7,2.9-41.8,6.1C654.7,1096,588.8,1085,570.7,1082z"/>
	<path class="st1" d="M669.4,1101.6l42.4-6.3l-2,0.6c0,0,40.3,6.7-19,11.6c-13.6,1.1-24.6-0.2-23.9,1.2l0.4-0.8L669.4,1101.6z"/>
	<path class="st2" d="M675.1,1112.5c-1,0-1.9-0.8-2.1-1.8c-0.2-1.2,0.6-2.2,1.8-2.4c4.9-0.7,9.3-1.7,13.2-2.6
		c4.8-1.1,8.9-2.1,12.5-2.1c4.4-0.1,17.3-0.2,19.6-1.8c0,0,0-0.1-0.1-0.1c-1-1.3-9.4-4.5-17.8-4.6c-9.6-0.1-18.2,3.2-18.3,3.2
		c-1.1,0.4-2.3-0.1-2.7-1.2c-0.4-1.1,0.1-2.3,1.2-2.7c0.4-0.1,9.3-3.5,19.5-3.5c0.1,0,0.2,0,0.3,0c8.1,0.1,19.4,3.1,21.5,6.8
		c1,1.9,0.6,3.3,0.1,4.2c-1.7,2.9-6.9,3.8-23.4,4c-3.1,0-7,0.9-11.6,2c-4,0.9-8.5,2-13.6,2.7
		C675.3,1112.4,675.2,1112.5,675.1,1112.5z"/>
	<polygon class="st4" points="524,873.5 553.1,859.1 600.6,890.8 580,907.2 	"/>
	<polygon class="st4" points="657.8,903.1 644,881 600.6,890.8 611.9,912.1 	"/>
	<path class="st2" d="M661.2,904.6l-16.1-26l-44,9.9l-47.8-31.8l-33.6,16.7l60.5,36.4l18.3-14.6c-2,33-14.8,235.8-31.3,289
		c-0.3,1,0.3,2.1,1.3,2.4c0.2,0.1,0.4,0.1,0.6,0.1c0.8,0,1.6-0.5,1.8-1.3c16.2-52.3,28.9-247.2,31.3-287.2l8.7,16.4L661.2,904.6z
		 M579.8,904.6l-51.4-30.9l24.5-12.2l44.1,29.4L579.8,904.6z M643,883.4l11.3,18.2l-41.3,8.1l-9.2-17.5L643,883.4z"/>
	<path class="st4" d="M453.8,1045.7l145.1,26l-16.9,50c0,0-100.5,2.9-122,0c-40.1-5.4-82.9-40.7-82.9-40.7L453.8,1045.7z"/>
	<path class="st2" d="M582.9,1121c-0.2,0-0.4,0-0.6-0.1c-1-0.3-1.6-1.5-1.2-2.5l15.3-45.1L463,1052.1l37.9-63.9
		c0.6-0.9,1.8-1.2,2.7-0.7c0.9,0.6,1.2,1.8,0.7,2.7l-34.9,58.9l132.2,21l-16.8,49.6C584.5,1120.4,583.7,1121,582.9,1121z"/>
</g>
<g>
	<path class="st7" d="M1660.5,1137.7l-1197-1.6c-6.6,0-12-5.4-12-12v-1.4c0-6.6,5.4-12,12-12l1197,1.6c6.6,0,12,5.4,12,12v1.4
		C1672.5,1132.3,1667.1,1137.7,1660.5,1137.7z"/>
	<path class="st2" d="M1660.5,1139.2L1660.5,1139.2l-1197-1.6c-7.4,0-13.5-6.1-13.5-13.5v-1.4c0-7.4,6.1-13.5,13.5-13.5l1197,1.6
		c7.4,0,13.5,6.1,13.5,13.5v1.4C1674,1133.1,1668,1139.2,1660.5,1139.2z M463.5,1112.1c-5.8,0-10.5,4.7-10.5,10.5v1.4
		c0,5.8,4.7,10.5,10.5,10.5l1197,1.6c5.8,0,10.5-4.7,10.5-10.5v-1.4c0-5.8-4.7-10.5-10.5-10.5L463.5,1112.1z"/>
	<polygon class="st7" points="422.7,1612.5 397.3,1612.5 514.4,1136.2 539.8,1136.2 	"/>
	<path class="st2" d="M423.8,1613.9h-28.3l0.4-1.7l117.4-477.3h28.3l-0.4,1.7L423.8,1613.9z M399.1,1611.1h22.5L538,1137.6h-22.5
		L399.1,1611.1z"/>
	<polygon class="st7" points="1656.3,1612.5 1681.7,1612.5 1611.6,1137.7 1586.2,1137.7 	"/>
	<path class="st2" d="M1683.4,1614H1655l-0.2-1.3l-70.3-476.5h28.4l0.2,1.3L1683.4,1614z M1657.6,1611h22.4l-69.6-471.8H1588
		L1657.6,1611z"/>
</g>
<g>
	<ellipse class="st3" cx="801.6" cy="559" rx="96.7" ry="96.7"/>
	<path class="st2" d="M801.7,560.7L743.9,534c-0.8-0.3-1.1-1.2-0.7-2c0.3-0.8,1.2-1.1,2-0.7l56.3,26l65.2-42.2
		c0.7-0.5,1.6-0.3,2.1,0.4c0.5,0.7,0.3,1.6-0.4,2.1L801.7,560.7z"/>
</g>
<g>
	<polygon class="st7" points="1001,956 966.1,1097.3 762.3,1097.3 803.5,956 	"/>
	<path class="st2" d="M967.3,1098.8h-207l42.1-144.3h200.5l-0.5,1.9L967.3,1098.8z M764.3,1095.8h200.6l34.2-138.3H804.7
		L764.3,1095.8z"/>
	<rect x="701.2" y="1097.3" class="st3" width="264.7" height="13.4"/>
	<path class="st2" d="M967.4,1112.1H699.7v-16.4h267.7L967.4,1112.1L967.4,1112.1z M702.7,1109.1h261.7v-10.4H702.7V1109.1z"/>
	<path class="st2" d="M880.4,1053.5c-0.4,0-0.8,0-1.3-0.1c-4.8-0.4-9-3-12-7.4c-2.9-4.3-4.3-9.8-3.8-15.4c1-11.8,9.7-20.6,19.5-19.8
		c9.7,0.8,16.8,11.1,15.8,22.8C897.7,1044.9,889.6,1053.5,880.4,1053.5z M881.5,1013.7c-7.7,0-14.4,7.4-15.2,17.1
		c-0.4,5,0.7,9.7,3.3,13.4c2.5,3.6,6,5.8,9.8,6.1c8.1,0.7,15.4-7,16.2-17.1c0.9-10.1-5-18.9-13.1-19.6
		C882.2,1013.8,881.9,1013.7,881.5,1013.7z"/>
</g>
<g>
	<path class="st4" d="M1238.2,1110.6L1238.2,1110.6c-24.3,0-44-19.7-44-44v-26.7h88v26.7C1282.2,1090.9,1262.5,1110.6,1238.2,1110.6
		z"/>
	<path class="st4" d="M1272.7,1095.5c-0.6,0-1.3,0-1.9-0.1l0.2-3c9.6,0.7,18.3-4.1,24-13.1c5-7.9,6.4-17.6,3.3-23
		c-1.1-1.9-2.6-3-4.6-3.4c-6.1-1-15.4,5.8-18.5,8.4l-2-2.3c0.5-0.4,12.2-10.6,21-9.2c2.9,0.5,5.1,2.1,6.7,4.8
		c3.6,6.4,2.3,17.1-3.3,26.1C1291.6,1090.3,1282.6,1095.5,1272.7,1095.5z"/>
	<path class="st1" d="M1223.5,1097.9c-0.2,0-0.4-0.1-0.6-0.2c-19.8-10.9-17.4-44.4-17.3-45.9c0.1-0.7,0.7-1.2,1.4-1.2
		c0.7,0.1,1.2,0.7,1.2,1.4c0,0.3-2.4,33.3,16,43.4c0.6,0.3,0.8,1.1,0.5,1.7C1224.4,1097.6,1224,1097.9,1223.5,1097.9z"/>
	<path class="st2" d="M1216.3,1032.9c-0.4,0-0.8-0.1-1.1-0.4c-0.6-0.6-0.6-1.5,0-2.1c7.8-7.7,10-10.3,9.9-19.2
		c-0.1-7.9-3.8-11.3-7.7-14.9c-3-2.8-6.2-5.7-7.8-10.7c-3.8-11.9,10.9-22.9,11.5-23.4c0.7-0.5,1.6-0.4,2.1,0.3
		c0.5,0.7,0.4,1.6-0.3,2.1c-0.1,0.1-13.6,10.2-10.5,20.1c1.4,4.3,4.1,6.8,6.9,9.4c4.2,3.8,8.5,7.8,8.6,17c0.2,10-2.7,13.3-10.8,21.3
		C1217.1,1032.8,1216.7,1032.9,1216.3,1032.9z"/>
	<path class="st2" d="M1255.4,1032.9c-0.4,0-0.8-0.1-1.1-0.4c-0.6-0.6-0.6-1.5,0-2.1c7.8-7.7,10-10.3,9.9-19.2
		c-0.1-7.9-3.8-11.3-7.7-14.9c-3-2.8-6.2-5.7-7.8-10.7c-3.8-11.9,10.9-22.9,11.5-23.4c0.7-0.5,1.6-0.4,2.1,0.3
		c0.5,0.7,0.4,1.6-0.3,2.1c-0.1,0.1-13.6,10.2-10.5,20.1c1.4,4.3,4.1,6.8,6.9,9.4c4.2,3.8,8.5,7.8,8.6,17c0.2,10-2.7,13.3-10.8,21.3
		C1256.2,1032.8,1255.8,1032.9,1255.4,1032.9z"/>
	<path class="st2" d="M1234.5,1025c-0.4,0-0.8-0.1-1.1-0.4c-0.6-0.6-0.6-1.5,0-2.1c7.8-7.7,10-10.3,9.9-19.2
		c-0.1-7.9-3.8-11.3-7.7-14.9c-3-2.8-6.2-5.7-7.8-10.7c-3.8-11.9,10.9-22.9,11.5-23.4c0.7-0.5,1.6-0.4,2.1,0.3
		c0.5,0.7,0.4,1.6-0.3,2.1c-0.1,0.1-13.6,10.2-10.5,20.1c1.4,4.3,4.1,6.8,6.9,9.4c4.2,3.8,8.5,7.8,8.6,17c0.2,10-2.7,13.3-10.8,21.3
		C1235.3,1024.8,1234.9,1025,1234.5,1025z"/>
</g>
<g>
	<polygon class="st1" points="1303.8,1524 1308.9,1573.6 1352.3,1573.6 1358.9,1520.5 	"/>
	<path class="st2" d="M1353.8,1575.2h-46.3l-5.4-52.7l58.7-3.7L1353.8,1575.2z M1310.4,1572h40.5l6.2-49.7l-51.5,3.3L1310.4,1572z"
		/>
	<path class="st4" d="M1306.6,1571.7c0,0-62.7,19.9-64.9,36.3h112.4v-36.3H1306.6z"/>
	<polygon class="st1" points="1443.9,1518.6 1433.6,1572.6 1477,1572.6 1484.7,1520.3 	"/>
	<path class="st2" d="M1478.4,1574.2h-46.7l11-57.2l44,1.8L1478.4,1574.2z M1435.5,1571h40l7.3-49.1l-37.6-1.5L1435.5,1571z"/>
	<path class="st4" d="M1431.2,1570.7c0,0-62.7,19.9-64.9,36.3h112.4v-36.3H1431.2z"/>
	<polygon class="st2" points="1361.1,1602.8 1361.1,1612.4 1480.5,1612.4 1480.5,1601.4 	"/>
	<polygon class="st2" points="1357.6,1601 1357.6,1612.4 1238.2,1612.4 1238.2,1600.1 	"/>
	<path class="st2" d="M1455.7,1602.9c-0.8,0-1.5-0.7-1.5-1.5v-21.8c0-0.8,0.7-1.5,1.5-1.5s1.5,0.7,1.5,1.5v21.8
		C1457.2,1602.2,1456.5,1602.9,1455.7,1602.9z"/>
	<path class="st2" d="M1331.1,1603.9c-0.8,0-1.5-0.7-1.5-1.5v-21.8c0-0.8,0.7-1.5,1.5-1.5s1.5,0.7,1.5,1.5v21.8
		C1332.5,1603.2,1331.9,1603.9,1331.1,1603.9z"/>
	<path class="st2" d="M1504,1174l-106.3,100.1l-22.7,266.8l-78.9,2c0,0,5.4-275.3,13.9-301.1c9-27.4,141.3-192.8,141.3-192.8
		l182.7-22.4c0,0,22.8,73.3,8.2,108.8c-14.6,35.4-148.5,411.2-148.5,411.2l-88.7-4.6L1504,1174z"/>
	<path class="st3" d="M1505,1175.3c-0.1,0-0.2,0-0.3,0c-0.7-0.2-1.2-0.9-1-1.7l17.3-66.7c0.2-0.7,0.9-1.2,1.7-1
		c0.7,0.2,1.2,0.9,1,1.7l-17.3,66.7C1506.2,1174.9,1505.6,1175.3,1505,1175.3z"/>
	<polygon class="st4" points="1506.8,811.5 1523.5,799 1541.2,809.4 1533.4,823.4 1564.9,1010.8 1542.7,1062 1516.1,1014.5 
		1517.7,824.2 	"/>
	<path class="st2" d="M1520.8,629c10.2-0.7,34.9-2.7,38,15.2c3.6,20.3,4.7,47.1,5.1,61.3c0.1,5.6-3.8,10.4-9.3,11.4l-61.6,10.8
		c-5.6,1-11.1-2.4-12.7-7.9c-5.5-18.5-15.2-58.3-14-64.7C1470.3,633.1,1504.7,630.1,1520.8,629z"/>
	<path class="st1" d="M1554.3,722c0,0,6.6,48,11.8,52.7c5.2,4.7,29.4,13.2,29.4,13.2l-66.9,60.6l-53.3-38.6c0,0,22.3-14.8,23.5-21.5
		c1.6-9.3-7-55.4-7-55.4L1554.3,722z"/>
	<path class="st2" d="M1528.6,850.4l-56-40.6l1.8-1.2c8.4-5.6,22.1-16.1,22.9-20.5c1.6-8.9-7-54.4-7-54.9c-0.2-0.8,0.4-1.6,1.2-1.8
		c0.8-0.2,1.6,0.4,1.8,1.2c0.4,1.9,8.7,46.6,7,56c-1.1,6.2-16.7,17.4-22.4,21.3l50.6,36.6l64.2-58.1c-6.3-2.3-23.2-8.7-27.6-12.7
		c-5.3-4.8-11.1-45.5-12.2-53.6c-0.1-0.8,0.5-1.6,1.3-1.7c0.8-0.1,1.6,0.5,1.7,1.3c2.5,18.3,7.8,48.6,11.3,51.8
		c4.1,3.7,16,12.9,22.7,15.3l3.7,2.9L1528.6,850.4z"/>
	<path class="st1" d="M1532.3,742.4c-17.1,5.1-39.5,5.6-46.6,0.6c-4.2-2.9-8.1-16.7-11.3-32.7c-0.1-0.5-8.6-57.5-8.6-57.5l78.1-13.7
		c0,0,2.9,17.2,5.5,36.7c0.1,0.9,1.1,1.3,1.8,0.7c3.7-3.1,9.1-6.1,10.5,1.1c1.8,9-5.3,16-9.1,18.6c-0.4,0.3-0.6,0.7-0.6,1.2
		c1.5,13.8,2.2,25.8,1.1,30.3c-0.6,2.5-2.3,4.7-4.6,6.7L1532.3,742.4z"/>
	<path class="st2" d="M1503.6,748c-8,0-15.1-1.1-18.8-3.8c-4-2.8-7.9-13.8-11.9-33.6c-0.1-0.5-6.6-44.2-8.7-57.5l-0.2-1.5l81.1-14.2
		l0.2,1.5c0,0.2,2.8,17.1,5.4,36c3.5-2.8,6.4-3.8,8.6-3c1.9,0.7,3.2,2.5,3.7,5.4c1.7,8.6-4.1,16.2-9.6,20.1
		c1.8,16.5,2.1,26.5,1,30.7c-0.7,2.7-2.4,5.2-5.1,7.5c-0.6,0.5-1.6,0.5-2.1-0.2c-0.5-0.6-0.5-1.6,0.2-2.1c2.2-1.9,3.6-3.9,4.1-5.9
		c0.7-2.6,1-9.9-1.1-29.7c-0.1-1,0.3-2,1.2-2.6c1.1-0.7,10.4-7.6,8.5-17.1c-0.2-1.2-0.8-2.8-1.8-3.2c-1.3-0.4-3.5,0.6-6.3,2.9
		c-0.7,0.6-1.7,0.8-2.6,0.4c-0.9-0.3-1.5-1.1-1.6-2.1c-2.2-15.9-4.5-30.5-5.2-35.1l-75.2,13.2c3,19.8,8.3,55.2,8.4,56
		c4.9,24.5,8.8,30.4,10.6,31.7c6.5,4.6,28.5,4.2,45.3-0.8c0.8-0.2,1.6,0.2,1.9,1c0.2,0.8-0.2,1.6-1,1.9
		C1524,746.4,1513.1,748,1503.6,748z"/>
	<path class="st2" d="M1489.2,695.9c-1,0-2-0.7-2.2-1.8l-0.3-1.8c-0.2-1.2,0.6-2.3,1.8-2.6c1.2-0.2,2.3,0.6,2.6,1.8l0.3,1.8
		c0.2,1.2-0.6,2.3-1.8,2.6C1489.5,695.9,1489.3,695.9,1489.2,695.9z"/>
	<path class="st2" d="M1524.2,690.1c-1.1,0-2-0.8-2.2-1.8l-0.3-1.8c-0.2-1.2,0.6-2.3,1.8-2.5c1.2-0.2,2.3,0.6,2.5,1.8l0.3,1.8
		c0.2,1.2-0.6,2.3-1.8,2.5C1524.4,690.1,1524.3,690.1,1524.2,690.1z"/>
	<path class="st2" d="M1515,676.7c-0.6,0-1.1-0.4-1.3-1c-0.2-0.7,0.2-1.4,0.9-1.6c0.4-0.1,10.8-2.9,16.8-0.4c0.7,0.3,1,1.1,0.7,1.7
		s-1.1,1-1.7,0.7c-5.2-2.1-15,0.5-15.1,0.5C1515.2,676.7,1515.1,676.7,1515,676.7z"/>
	<path class="st1" d="M1493.5,679.1c0,0-6.2-2.1-14.7,3.4L1493.5,679.1z"/>
	<path class="st2" d="M1478.8,683.9c-0.4,0-0.9-0.2-1.1-0.6c-0.4-0.6-0.2-1.4,0.4-1.8c8.9-5.8,15.6-3.7,15.8-3.6
		c0.7,0.2,1.1,1,0.8,1.7c-0.2,0.7-1,1.1-1.7,0.8c-0.2-0.1-5.8-1.8-13.5,3.3C1479.3,683.8,1479.1,683.9,1478.8,683.9z"/>
	<path class="st2" d="M1506.7,709.8C1506.7,709.8,1506.7,709.8,1506.7,709.8c-1.7-0.1-7.3-0.5-8.5-3.7c-0.9-2.4-0.8-3.1,0.9-11.5
		c0.4-1.8,0.8-4,1.3-6.7c0.2-0.9,1.1-1.5,2-1.3c0.9,0.2,1.5,1.1,1.3,2c-0.5,2.7-1,4.9-1.3,6.7c-1.6,8.1-1.6,8.2-1.1,9.6
		c0.2,0.6,2.7,1.4,5.4,1.5c0.9,0,1.7,0.8,1.6,1.8C1508.4,709,1507.6,709.8,1506.7,709.8z"/>
	<path class="st2" d="M1552,696.1c0,0-1.9,2.7-5.9,8.3c-4.6,6.5-57,12.5-61,11.3c-8.7-2.7-7.9-10-10.8-8.9
		c-3.6,1.4,7,37.4,11.7,41.9c4.8,4.5,42.7-0.3,62.2-8C1564.4,734.4,1552,696.1,1552,696.1z"/>
	<path class="st2" d="M1544.7,643.2c0,0-55.4,27.1-85.3,11.2c-30-15.9,11.8-24.1,37.4-25.9C1522.5,626.6,1558.7,625.5,1544.7,643.2z
		"/>
	<path class="st1" d="M1350.7,876.7c22.5,1.6,126.3-80.1,138.9-79.8c1.1,0,33.2,3.2,33.9,2.8c7.3-4.6,12.9-4.8,17.1-1.5
		c16.4-5,38.9-13.1,40-12.9c46.5,8.5,98.7,138,101.6,146.9c10.7,32-29.2,48.7-29.2,48.7c-0.4,3.6,12.5,94.4,12.5,94.4l-146.4,4.8
		l0,0l-97.9,4.4c0,0,11.1-158,8-203.9c-1.5-22.6-37.5,95.7-69.8,48.9C1319.5,871.5,1333.9,875.5,1350.7,876.7z"/>
	<path class="st2" d="M1419.6,1086l0.1-1.7c0.1-1.6,11-158.5,8-203.7c0-0.4-0.1-0.7-0.1-0.9c-1.8,2-5.2,8.3-8.3,14
		c-10.2,18.9-25.7,47.4-42.6,48.3c-6.7,0.3-12.9-3.6-18.5-11.7c-26.4-38.3-27.6-47.7-25-52.2c2.4-4.1,8.4-3.7,15.3-3.1
		c0.8,0.1,1.6,0.1,2.4,0.2l0,0c0.2,0,0.4,0,0.6,0c13.3,0,53.7-27.1,86.2-49c28.5-19.1,46.3-30.9,51.8-30.9c0,0,0,0,0.1,0
		c0.3,0,2,0.2,6.9,0.6c7.8,0.7,23.9,2.2,26.4,2.2c7.1-4.4,13.1-5,17.9-1.7c7.6-2.4,16.5-5.3,23.8-7.8c14.2-4.8,15.4-5.1,16.2-4.9
		c19.9,3.6,42.9,28.6,68.2,74c19.9,35.7,33.4,70.2,34.6,73.8c10.1,30.1-23,47.2-29.1,50.1c0.5,7.6,7.6,58.9,12.5,93.2l0.2,1.7
		l-148.1,4.9L1419.6,1086z M1428,876.1c0.2,0,0.3,0,0.5,0.1c2,0.4,2.2,3.1,2.3,4.3c2.9,42.9-6.7,185.1-7.8,202.4l96.2-4.3l144.7-4.8
		c-2.1-14.9-12.6-89.6-12.3-93.1l0.1-0.9l0.8-0.4c1.6-0.7,38.5-16.5,28.3-46.8c-1.2-3.4-14.9-38.3-34.4-73.3
		c-24.4-43.9-47.2-68.9-65.9-72.5c-1.3,0.3-8.2,2.6-14.9,4.8c-7.5,2.5-16.8,5.6-24.6,8l-0.8,0.2l-0.6-0.5c-3.9-3-8.9-2.5-15.4,1.6
		c-0.7,0.4-1,0.6-28-1.9c-3.4-0.3-6.4-0.6-6.7-0.6c0,0,0,0,0,0c-4.8,0-27.8,15.4-50.1,30.4c-35.2,23.7-75.2,50.5-88.8,49.5
		c-0.8-0.1-1.6-0.1-2.4-0.2c-5.7-0.5-11-0.9-12.4,1.6c-2.7,4.7,5.4,20.7,24.9,48.9c5,7.2,10.3,10.7,15.8,10.4
		c15.2-0.8,30.8-29.5,40.1-46.7C1423,880.3,1425.5,876.1,1428,876.1z M1580.6,786.8L1580.6,786.8L1580.6,786.8z"/>
	<path class="st4" d="M1523.4,798.4l-6.9,266.2L1523.4,798.4z"/>
	<path class="st2" d="M1516.6,1066.1C1516.6,1066.1,1516.6,1066.1,1516.6,1066.1c-0.8,0-1.5-0.7-1.4-1.5l6.9-266.2
		c0-0.8,0.7-1.4,1.5-1.4c0.8,0,1.4,0.7,1.4,1.5l-6.9,266.2C1518,1065.4,1517.4,1066.1,1516.6,1066.1z"/>
	<polygon class="st4" points="1506.9,812.2 1523.6,799.6 1542.5,808.3 1530.6,824.9 1542.5,991.8 1520.3,1043 1493.7,995.5 
		1517.7,824.8 	"/>
	<path class="st1" d="M1574.7,871.3c0,0,21.8,48.1,16.8,56.7c-5,8.6-107.7,17.8-107.7,17.8l5.6,42.7c0,0,99.8,10.3,154.7-9
		L1574.7,871.3z"/>
	<path class="st2" d="M1549,992.6c-32.9,0-59.3-2.6-59.8-2.7l-1.1-0.1l-5.9-45.3l1.5-0.1c0.3,0,26-2.3,51.9-5.7
		c48.2-6.2,54-10.3,54.7-11.4c3.4-5.8-8.5-37-16.8-55.4c-0.3-0.7,0-1.6,0.7-1.9c0.7-0.3,1.6,0,1.9,0.7c2.3,5,21.9,49.1,16.7,58
		c-1,1.6-3.5,6-56.8,12.8c-22.5,2.9-44.7,5-50.6,5.6l5.3,40.1c11.1,1,102.1,8.8,152.9-9c0.7-0.3,1.6,0.1,1.8,0.9
		c0.3,0.7-0.1,1.6-0.9,1.8C1617.9,990.2,1580.5,992.6,1549,992.6z"/>
	<polygon class="st1" points="1523.4,798.4 1555.3,815 1594,786.4 1573.1,778.1 	"/>
	<polygon class="st1" points="1523.4,798.4 1502.3,817.9 1472.1,805.5 1483.3,792.9 	"/>
	<path class="st2" d="M1597.1,786l-24-9.5l-49.9,20.4l-40.4-5.1l-14.6,15.4l32.6,12.6l22.7-19.6l31.9,16.6L1597.1,786z
		 M1500.2,816.2l-26.6-10.3l10.4-11l35.6,4.5L1500.2,816.2z M1527,798.5l46.1-18.8l17.8,7.1l-35.7,26.4L1527,798.5z"/>
	<polygon class="st1" points="1496.7,851.2 1497.4,860.3 1463.7,862.7 1463.1,853.6 	"/>
	<path class="st2" d="M1462.4,864.3l-0.9-12.1l36.6-2.6l0.9,12.1L1462.4,864.3z M1464.7,855l0.4,6.1l30.6-2.2l-0.4-6.1L1464.7,855z"
		/>
	<polygon class="st7" points="1271.4,821.5 1306.3,962.8 1510.1,962.8 1468.8,821.5 	"/>
	<path class="st2" d="M1512.1,964.3h-207l-0.3-1.1L1269.5,820H1470l0.3,1.1L1512.1,964.3z M1307.5,961.3h200.6L1467.7,823h-194.4
		L1307.5,961.3z"/>
	<rect x="1306.5" y="962.8" class="st3" width="264.7" height="13.4"/>
	<path class="st2" d="M1572.7,977.6H1305v-16.4h267.7V977.6z M1308,974.6h261.7v-10.4H1308V974.6z"/>
	<path class="st2" d="M1392,919c-9.2,0-17.2-8.6-18.2-19.9c-1-11.8,6.1-22,15.8-22.8c4.8-0.4,9.4,1.5,13.1,5.3
		c3.6,3.7,5.9,8.9,6.3,14.5l0,0c0.5,5.6-0.9,11.1-3.8,15.4c-3,4.4-7.3,7-12,7.4C1392.8,918.9,1392.4,919,1392,919z M1390.9,879.2
		c-0.3,0-0.7,0-1,0c-8.1,0.7-13.9,9.5-13.1,19.6c0.9,10.1,8.1,17.7,16.2,17.1c3.9-0.3,7.3-2.5,9.8-6.1c2.5-3.7,3.7-8.5,3.3-13.4l0,0
		c-0.4-5-2.4-9.5-5.5-12.7C1397.8,880.8,1394.4,879.2,1390.9,879.2z"/>
	<path class="st1" d="M1348.2,979.3c0,0-3.7-24.8-9.1-26s-3.6,22-4.2,22.2c-0.9,0.2-0.4-27.3-5.4-28.9c-5-1.6-4.3,25.5-4.8,25.4
		c-0.7-0.1,0.8-17.4-3.9-21.1c-4.6-3.7-2.6,18.8-3.6,18.4c-0.6-0.2,1.5-15.1-3.2-15.9c-2.9-0.5-6.3,16.9-6.3,16.9
		s-1.9,11.1,10.2,13.7C1321.1,984.7,1344.3,990.3,1348.2,979.3z"/>
	<path class="st2" d="M1333.7,987.4c-4.1,0-9.2-0.6-15.5-2l-0.5-0.1c-13.3-2.8-11.3-15.1-11.3-15.3c3.7-18.8,6.9-18.2,7.9-18.1
		c1,0.2,1.8,0.7,2.4,1.5c0.4-2.4,1.1-3.7,2.2-4.3c0.5-0.2,1.5-0.5,2.8,0.5c1.3,1,2.1,2.7,2.8,4.9c0.6-4.8,1.5-7.9,3.1-9.1
		c0.7-0.5,1.6-0.6,2.4-0.4c2.5,0.8,3.8,4.7,4.7,11.6c0.5-2,1.2-3.5,2.2-4.3c0.8-0.6,1.7-0.8,2.6-0.6c5.8,1.4,9.3,21.2,10.2,27.2
		l0.1,0.3l-0.1,0.3C1348.2,983.6,1344.2,987.4,1333.7,987.4z M1314.1,954.8c-1.2,1.2-3.5,8.2-5,15.8c-0.1,0.4-1.5,9.8,9.1,12
		l0.5,0.1c15.7,3.4,25.7,2.2,28-3.6c-1.8-11.4-5.3-23.9-8-24.5c-0.1,0-0.1,0-0.2,0.1c-2.1,1.7-2.1,13.5-2.1,17.3c0,4,0,4.5-1.2,4.8
		l-0.6,0.1l-0.5-0.4c-0.7-0.5-0.8-1.1-1.1-6.7c-0.8-13.9-2.1-21.3-3.8-21.9c-1,0.6-2.3,4.7-2.8,20.4c-0.1,4.2-0.1,4.3-0.7,4.8
		l-0.5,0.4l-0.6-0.1c-1.4-0.2-1.4-1.1-1.5-4.9c-0.1-4.3-0.3-14.2-3-16.5c-1,1.8-1,9.6-1,12.6c0,4.6,0,5.3-0.9,5.9l-0.6,0.4l-0.7-0.3
		c-1.1-0.4-1.1-1.2-1-4.1C1316,959.3,1315.4,955.4,1314.1,954.8z"/>
	<path class="st1" d="M1499.7,722.9c-0.9,1.3,0.1,6.1,4.5,5.4c11.2-1.7,20.8-10.8,18.1-9.9c-1,0.3-8.1,2.8-12.8,3.8
		C1503.1,723.5,1500.8,721.4,1499.7,722.9z"/>
</g>
<g>
	<polygon class="st8" points="1662,1380.2 1703,1313.2 1775,1346.7 1766.9,1401.2 	"/>
	<path class="st2" d="M1768.2,1403l-108.6-21.7l42.8-70l74.2,34.5L1768.2,1403z M1664.4,1379.2l101.2,20.3l7.7-51.8l-69.8-32.5
		L1664.4,1379.2z"/>
	<polygon class="st8" points="1573.6,1381.3 1587.5,1339.4 1685.1,1369.7 1665.9,1407.7 	"/>
	<path class="st2" d="M1666.7,1409.5l-95-27.1l14.9-44.8l100.8,31.3L1666.7,1409.5z M1575.5,1380.3l89.6,25.6l17.9-35.3l-94.6-29.4
		L1575.5,1380.3z"/>
	<polygon class="st6" points="1561.2,1374.4 1783.9,1374.4 1757.2,1612.4 1586.5,1612.9 	"/>
</g>
<path class="st2" d="M1847.9,1614H83c-0.8,0-1.5-0.7-1.5-1.5s0.7-1.5,1.5-1.5h1764.9c0.8,0,1.5,0.7,1.5,1.5S1848.7,1614,1847.9,1614
	z"/>
</svg>
